<mxfile host="app.diagrams.net" modified="2022-08-26T16:01:50.963Z" agent="5.0 (Windows NT 10.0; Win64; x64) AppleWebKit/537.36 (KHTML, like Gecko) Chrome/104.0.0.0 Safari/537.36" etag="-CZM5N_7gY4EvZx-IBfc" version="20.2.6" type="github">
  <diagram id="zzvXpx5f5zcqOnSdW2SA" name="Page-1">
    <mxGraphModel dx="869" dy="476" grid="1" gridSize="10" guides="1" tooltips="1" connect="1" arrows="1" fold="1" page="1" pageScale="1" pageWidth="827" pageHeight="1169" math="0" shadow="0">
      <root>
        <mxCell id="0" />
        <mxCell id="1" parent="0" />
        <mxCell id="zVf6gFmjgH7ORG9ChD0n-1" style="edgeStyle=orthogonalEdgeStyle;rounded=0;orthogonalLoop=1;jettySize=auto;html=1;exitX=0.5;exitY=1;exitDx=0;exitDy=0;entryX=0.5;entryY=0;entryDx=0;entryDy=0;" edge="1" parent="1" source="zVf6gFmjgH7ORG9ChD0n-2" target="zVf6gFmjgH7ORG9ChD0n-5">
          <mxGeometry relative="1" as="geometry" />
        </mxCell>
        <mxCell id="zVf6gFmjgH7ORG9ChD0n-2" value="Mulai" style="ellipse;whiteSpace=wrap;html=1;fontSize=18;fontFamily=Times New Roman;" vertex="1" parent="1">
          <mxGeometry x="180" y="40" width="140" height="50" as="geometry" />
        </mxCell>
        <mxCell id="zVf6gFmjgH7ORG9ChD0n-3" value="Selesai" style="ellipse;whiteSpace=wrap;html=1;fontSize=18;fontFamily=Times New Roman;" vertex="1" parent="1">
          <mxGeometry x="510.5" y="500" width="140" height="50" as="geometry" />
        </mxCell>
        <mxCell id="zVf6gFmjgH7ORG9ChD0n-4" style="edgeStyle=orthogonalEdgeStyle;rounded=0;orthogonalLoop=1;jettySize=auto;html=1;exitX=0.5;exitY=1;exitDx=0;exitDy=0;entryX=0.5;entryY=0;entryDx=0;entryDy=0;" edge="1" parent="1" source="zVf6gFmjgH7ORG9ChD0n-5" target="zVf6gFmjgH7ORG9ChD0n-7">
          <mxGeometry relative="1" as="geometry" />
        </mxCell>
        <mxCell id="zVf6gFmjgH7ORG9ChD0n-5" value="Install &amp;amp; Import Library" style="shape=parallelogram;perimeter=parallelogramPerimeter;whiteSpace=wrap;html=1;fixedSize=1;fontSize=18;fontFamily=Times New Roman;" vertex="1" parent="1">
          <mxGeometry x="125" y="120" width="250" height="40" as="geometry" />
        </mxCell>
        <mxCell id="zVf6gFmjgH7ORG9ChD0n-6" style="edgeStyle=orthogonalEdgeStyle;rounded=0;orthogonalLoop=1;jettySize=auto;html=1;entryX=0.5;entryY=0;entryDx=0;entryDy=0;" edge="1" parent="1" source="zVf6gFmjgH7ORG9ChD0n-7" target="zVf6gFmjgH7ORG9ChD0n-9">
          <mxGeometry relative="1" as="geometry" />
        </mxCell>
        <mxCell id="zVf6gFmjgH7ORG9ChD0n-7" value="Data Collecting &amp;amp; Cleaning" style="shape=parallelogram;perimeter=parallelogramPerimeter;whiteSpace=wrap;html=1;fixedSize=1;fontSize=18;fontFamily=Times New Roman;" vertex="1" parent="1">
          <mxGeometry x="125" y="185" width="250" height="40" as="geometry" />
        </mxCell>
        <mxCell id="zVf6gFmjgH7ORG9ChD0n-8" style="edgeStyle=orthogonalEdgeStyle;rounded=0;orthogonalLoop=1;jettySize=auto;html=1;exitX=0.5;exitY=1;exitDx=0;exitDy=0;" edge="1" parent="1" source="zVf6gFmjgH7ORG9ChD0n-9" target="zVf6gFmjgH7ORG9ChD0n-11">
          <mxGeometry relative="1" as="geometry" />
        </mxCell>
        <mxCell id="zVf6gFmjgH7ORG9ChD0n-9" value="Data Preprocessing &amp;amp; Transformation" style="rounded=0;whiteSpace=wrap;html=1;fontSize=18;fontFamily=Times New Roman;" vertex="1" parent="1">
          <mxGeometry x="130.5" y="250" width="239" height="50" as="geometry" />
        </mxCell>
        <mxCell id="zVf6gFmjgH7ORG9ChD0n-10" style="edgeStyle=orthogonalEdgeStyle;rounded=0;orthogonalLoop=1;jettySize=auto;html=1;exitX=0.5;exitY=1;exitDx=0;exitDy=0;" edge="1" parent="1" source="zVf6gFmjgH7ORG9ChD0n-11" target="zVf6gFmjgH7ORG9ChD0n-18">
          <mxGeometry relative="1" as="geometry" />
        </mxCell>
        <mxCell id="zVf6gFmjgH7ORG9ChD0n-11" value="Train &amp;amp; Test Model" style="rounded=0;whiteSpace=wrap;html=1;fontSize=18;fontFamily=Times New Roman;" vertex="1" parent="1">
          <mxGeometry x="130" y="330" width="240" height="50" as="geometry" />
        </mxCell>
        <mxCell id="zVf6gFmjgH7ORG9ChD0n-12" style="edgeStyle=orthogonalEdgeStyle;rounded=0;orthogonalLoop=1;jettySize=auto;html=1;exitX=0.5;exitY=1;exitDx=0;exitDy=0;entryX=0.5;entryY=0;entryDx=0;entryDy=0;" edge="1" parent="1" source="zVf6gFmjgH7ORG9ChD0n-13" target="zVf6gFmjgH7ORG9ChD0n-15">
          <mxGeometry relative="1" as="geometry" />
        </mxCell>
        <mxCell id="zVf6gFmjgH7ORG9ChD0n-13" value="Convert Model ke JSON dengan TensorFlow.js" style="rounded=0;whiteSpace=wrap;html=1;fontSize=18;fontFamily=Times New Roman;" vertex="1" parent="1">
          <mxGeometry x="130" y="520" width="240" height="50" as="geometry" />
        </mxCell>
        <mxCell id="zVf6gFmjgH7ORG9ChD0n-14" style="edgeStyle=orthogonalEdgeStyle;rounded=0;orthogonalLoop=1;jettySize=auto;html=1;exitX=1;exitY=0.5;exitDx=0;exitDy=0;entryX=0;entryY=0.5;entryDx=0;entryDy=0;" edge="1" parent="1" source="zVf6gFmjgH7ORG9ChD0n-15" target="zVf6gFmjgH7ORG9ChD0n-20">
          <mxGeometry relative="1" as="geometry">
            <Array as="points">
              <mxPoint x="424" y="620" />
              <mxPoint x="424" y="140" />
            </Array>
          </mxGeometry>
        </mxCell>
        <mxCell id="zVf6gFmjgH7ORG9ChD0n-15" value="Export Final Model" style="shape=parallelogram;perimeter=parallelogramPerimeter;whiteSpace=wrap;html=1;fixedSize=1;fontSize=18;fontFamily=Times New Roman;" vertex="1" parent="1">
          <mxGeometry x="150" y="600" width="200" height="40" as="geometry" />
        </mxCell>
        <mxCell id="zVf6gFmjgH7ORG9ChD0n-16" value="Tidak" style="edgeStyle=orthogonalEdgeStyle;rounded=0;orthogonalLoop=1;jettySize=auto;html=1;exitX=1;exitY=0.5;exitDx=0;exitDy=0;entryX=1;entryY=0.5;entryDx=0;entryDy=0;fontSize=16;fontFamily=Times New Roman;" edge="1" parent="1" source="zVf6gFmjgH7ORG9ChD0n-18" target="zVf6gFmjgH7ORG9ChD0n-9">
          <mxGeometry relative="1" as="geometry">
            <Array as="points">
              <mxPoint x="400" y="440" />
              <mxPoint x="400" y="275" />
            </Array>
          </mxGeometry>
        </mxCell>
        <mxCell id="zVf6gFmjgH7ORG9ChD0n-17" value="Ya" style="edgeStyle=orthogonalEdgeStyle;rounded=0;orthogonalLoop=1;jettySize=auto;html=1;exitX=0.5;exitY=1;exitDx=0;exitDy=0;entryX=0.5;entryY=0;entryDx=0;entryDy=0;fontSize=16;fontFamily=Times New Roman;" edge="1" parent="1" source="zVf6gFmjgH7ORG9ChD0n-18" target="zVf6gFmjgH7ORG9ChD0n-13">
          <mxGeometry relative="1" as="geometry" />
        </mxCell>
        <mxCell id="zVf6gFmjgH7ORG9ChD0n-18" value="Model Sudah Akurat?" style="rhombus;whiteSpace=wrap;html=1;fontSize=18;fontFamily=Times New Roman;" vertex="1" parent="1">
          <mxGeometry x="130" y="410" width="240" height="60" as="geometry" />
        </mxCell>
        <mxCell id="zVf6gFmjgH7ORG9ChD0n-19" style="edgeStyle=orthogonalEdgeStyle;rounded=0;orthogonalLoop=1;jettySize=auto;html=1;exitX=0.5;exitY=1;exitDx=0;exitDy=0;entryX=0.5;entryY=0;entryDx=0;entryDy=0;" edge="1" parent="1" source="zVf6gFmjgH7ORG9ChD0n-20" target="zVf6gFmjgH7ORG9ChD0n-22">
          <mxGeometry relative="1" as="geometry" />
        </mxCell>
        <mxCell id="zVf6gFmjgH7ORG9ChD0n-20" value="Import Final Model ke Web" style="shape=parallelogram;perimeter=parallelogramPerimeter;whiteSpace=wrap;html=1;fixedSize=1;fontSize=18;fontFamily=Times New Roman;" vertex="1" parent="1">
          <mxGeometry x="460" y="120" width="241" height="40" as="geometry" />
        </mxCell>
        <mxCell id="zVf6gFmjgH7ORG9ChD0n-21" style="edgeStyle=orthogonalEdgeStyle;rounded=0;orthogonalLoop=1;jettySize=auto;html=1;exitX=0.5;exitY=1;exitDx=0;exitDy=0;entryX=0.5;entryY=0;entryDx=0;entryDy=0;" edge="1" parent="1" source="zVf6gFmjgH7ORG9ChD0n-22" target="zVf6gFmjgH7ORG9ChD0n-26">
          <mxGeometry relative="1" as="geometry" />
        </mxCell>
        <mxCell id="zVf6gFmjgH7ORG9ChD0n-22" value="Membuat Image Predict TensorFlow.js" style="rounded=0;whiteSpace=wrap;html=1;fontSize=18;fontFamily=Times New Roman;" vertex="1" parent="1">
          <mxGeometry x="459" y="185" width="240" height="50" as="geometry" />
        </mxCell>
        <mxCell id="zVf6gFmjgH7ORG9ChD0n-31" style="edgeStyle=orthogonalEdgeStyle;rounded=0;orthogonalLoop=1;jettySize=auto;html=1;exitX=0.5;exitY=1;exitDx=0;exitDy=0;" edge="1" parent="1" source="zVf6gFmjgH7ORG9ChD0n-24" target="zVf6gFmjgH7ORG9ChD0n-3">
          <mxGeometry relative="1" as="geometry" />
        </mxCell>
        <mxCell id="zVf6gFmjgH7ORG9ChD0n-24" value="Deployment" style="shape=parallelogram;perimeter=parallelogramPerimeter;whiteSpace=wrap;html=1;fixedSize=1;fontSize=18;fontFamily=Times New Roman;" vertex="1" parent="1">
          <mxGeometry x="460" y="430" width="240" height="40" as="geometry" />
        </mxCell>
        <mxCell id="zVf6gFmjgH7ORG9ChD0n-25" style="edgeStyle=orthogonalEdgeStyle;rounded=0;orthogonalLoop=1;jettySize=auto;html=1;exitX=0.5;exitY=1;exitDx=0;exitDy=0;entryX=0.5;entryY=0;entryDx=0;entryDy=0;" edge="1" parent="1" source="zVf6gFmjgH7ORG9ChD0n-26" target="zVf6gFmjgH7ORG9ChD0n-29">
          <mxGeometry relative="1" as="geometry" />
        </mxCell>
        <mxCell id="zVf6gFmjgH7ORG9ChD0n-26" value="Test Images" style="rounded=0;whiteSpace=wrap;html=1;fontSize=18;fontFamily=Times New Roman;" vertex="1" parent="1">
          <mxGeometry x="460" y="255" width="240" height="40" as="geometry" />
        </mxCell>
        <mxCell id="zVf6gFmjgH7ORG9ChD0n-27" value="Ya" style="edgeStyle=orthogonalEdgeStyle;rounded=0;orthogonalLoop=1;jettySize=auto;html=1;exitX=0.5;exitY=1;exitDx=0;exitDy=0;fontSize=16;fontFamily=Times New Roman;" edge="1" parent="1" source="zVf6gFmjgH7ORG9ChD0n-29" target="zVf6gFmjgH7ORG9ChD0n-24">
          <mxGeometry relative="1" as="geometry" />
        </mxCell>
        <mxCell id="zVf6gFmjgH7ORG9ChD0n-28" value="Tidak" style="edgeStyle=orthogonalEdgeStyle;rounded=0;orthogonalLoop=1;jettySize=auto;html=1;exitX=1;exitY=0.5;exitDx=0;exitDy=0;entryX=1;entryY=0.5;entryDx=0;entryDy=0;fontSize=16;fontFamily=Times New Roman;" edge="1" parent="1" source="zVf6gFmjgH7ORG9ChD0n-29" target="zVf6gFmjgH7ORG9ChD0n-22">
          <mxGeometry relative="1" as="geometry" />
        </mxCell>
        <mxCell id="zVf6gFmjgH7ORG9ChD0n-29" value="Hasilnya Sudah Sesuai?" style="rhombus;whiteSpace=wrap;html=1;fontSize=18;fontFamily=Times New Roman;" vertex="1" parent="1">
          <mxGeometry x="460" y="325" width="240" height="60" as="geometry" />
        </mxCell>
      </root>
    </mxGraphModel>
  </diagram>
</mxfile>
